<svg width="20" height="21" viewBox="0 0 20 21" fill="none" xmlns="http://www.w3.org/2000/svg">
<path d="M12.9594 10.1897C13.6118 10.1897 14.1289 10.4204 14.5107 10.8819C14.8926 11.3592 15.0835 11.924 15.0835 12.5764C15.0835 13.0696 14.992 13.4912 14.8091 13.8413C14.6261 14.1913 14.3994 14.4777 14.1289 14.7005C13.8584 14.9232 13.5243 15.0903 13.1265 15.2017C12.7128 15.329 12.327 15.4085 11.969 15.4403C11.611 15.4722 11.2013 15.4881 10.7399 15.4881H9.33174C8.88624 15.4881 8.48051 15.4722 8.11456 15.4403C7.74861 15.4085 7.35879 15.329 6.94511 15.2017C6.53142 15.0903 6.1973 14.9232 5.94272 14.7005C5.67224 14.4777 5.44948 14.1913 5.27446 13.8413C5.09944 13.4912 5.01193 13.0696 5.01193 12.5764C5.01193 11.924 5.20286 11.3592 5.58473 10.8819C5.96659 10.4204 6.48369 10.1897 7.13604 10.1897C7.26333 10.1897 7.45823 10.2056 7.72076 10.2375C7.98329 10.2693 8.3214 10.3091 8.73508 10.3568C8.92601 10.3886 9.13286 10.4125 9.35561 10.4284C9.57836 10.4443 9.80907 10.4523 10.0477 10.4523C10.2705 10.4523 10.4932 10.4443 10.716 10.4284C10.9387 10.4125 11.1456 10.3886 11.3365 10.3568C11.7661 10.3091 12.1122 10.2693 12.3747 10.2375C12.6372 10.2056 12.8321 10.1897 12.9594 10.1897ZM7.99523 13.889C8.2498 13.5867 8.39698 13.2605 8.43675 12.9105C8.47653 12.5605 8.44869 12.2263 8.35322 11.9081C8.27367 11.6695 8.15036 11.4547 7.98329 11.2637C7.81623 11.0728 7.62132 10.9773 7.39857 10.9773C7.17582 10.9773 6.96897 11.0728 6.77804 11.2637C6.53938 11.566 6.40016 11.8922 6.36038 12.2422C6.3206 12.5923 6.34049 12.9264 6.42005 13.2446C6.4996 13.4833 6.62291 13.6981 6.78998 13.889C6.95704 14.08 7.1599 14.1754 7.39857 14.1754C7.62132 14.1754 7.82021 14.08 7.99523 13.889ZM13.2936 13.889C13.5481 13.5867 13.6953 13.2605 13.7351 12.9105C13.7749 12.5605 13.7391 12.2263 13.6277 11.9081C13.564 11.6695 13.4487 11.4547 13.2816 11.2637C13.1146 11.0728 12.9197 10.9773 12.6969 10.9773C12.4741 10.9773 12.2673 11.0728 12.0764 11.2637C11.8377 11.566 11.6985 11.8922 11.6587 12.2422C11.6189 12.5923 11.6388 12.9264 11.7184 13.2446C11.7979 13.4833 11.9212 13.6981 12.0883 13.889C12.2554 14.08 12.4582 14.1754 12.6969 14.1754C12.9197 14.1754 13.1185 14.08 13.2936 13.889ZM10 0.5C11.3842 0.5 12.681 0.76253 13.8902 1.28759C15.0994 1.81265 16.1575 2.52466 17.0644 3.42363C17.9714 4.32259 18.6874 5.38067 19.2124 6.59785C19.7375 7.81504 20 9.11575 20 10.5C20 11.8842 19.7375 13.181 19.2124 14.3902C18.6874 15.5994 17.9714 16.6575 17.0644 17.5644C16.1575 18.4714 15.0994 19.1874 13.8902 19.7124C12.681 20.2375 11.3842 20.5 10 20.5C8.61575 20.5 7.31901 20.2375 6.10979 19.7124C4.90056 19.1874 3.84248 18.4714 2.93556 17.5644C2.02864 16.6575 1.31265 15.5994 0.787589 14.3902C0.26253 13.181 0 11.8842 0 10.5C0 9.11575 0.26253 7.81504 0.787589 6.59785C1.31265 5.38067 2.02864 4.32259 2.93556 3.42363C3.84248 2.52466 4.90056 1.81265 6.10979 1.28759C7.31901 0.76253 8.61575 0.5 10 0.5ZM16.42 13.8652C16.7542 13.181 16.9212 12.2661 16.9212 11.1205C16.9212 9.78401 16.5473 8.68616 15.7995 7.82697C15.9427 7.38146 16.0143 6.92005 16.0143 6.44272C16.0143 5.8222 15.8791 5.21758 15.6086 4.62888C15.0358 4.62888 14.5107 4.74025 14.0334 4.96301C13.8107 5.07438 13.572 5.2136 13.3174 5.38067C13.0628 5.54773 12.7844 5.74264 12.4821 5.96539C11.7661 5.77446 10.9944 5.679 10.1671 5.679C9.72156 5.679 9.28799 5.70684 8.86635 5.76253C8.44471 5.81822 8.02705 5.89379 7.61337 5.98926C7.00875 5.51193 6.48369 5.16985 6.03819 4.96301C5.56086 4.74025 5.04376 4.62888 4.48687 4.62888C4.20048 5.20167 4.05728 5.80628 4.05728 6.44272C4.05728 6.93596 4.12888 7.40533 4.27208 7.85084C3.52426 8.72593 3.15036 9.81583 3.15036 11.1205C3.15036 12.2661 3.32538 13.181 3.67542 13.8652C3.92999 14.422 4.32379 14.8636 4.8568 15.1897C5.38982 15.5159 5.94272 15.7506 6.51551 15.8938C6.9292 16.0211 7.35084 16.1086 7.78043 16.1563C8.00318 16.1881 8.21798 16.212 8.42482 16.2279C8.63166 16.2438 8.82259 16.2518 8.99761 16.2518C9.17263 16.2677 9.35561 16.2757 9.54654 16.2757H10.895L11.5513 16.2518L12.2076 16.1802L12.9594 16.0609C13.5163 15.9654 13.9857 15.8381 14.3675 15.679C14.7812 15.504 15.171 15.2613 15.537 14.9511C15.9029 14.6408 16.1973 14.2788 16.42 13.8652Z" fill="black"/>
</svg>
