<svg width="20" height="21" viewBox="0 0 20 21" fill="none" xmlns="http://www.w3.org/2000/svg">
<path d="M15.006 0.5C15.691 0.5 16.3361 0.631422 16.9415 0.894265C17.5468 1.15711 18.0765 1.51553 18.5305 1.96953C18.9845 2.42354 19.3429 2.95321 19.6057 3.55854C19.8686 4.16388 20 4.80904 20 5.49403V15.4821C20 16.1671 19.8686 16.8162 19.6057 17.4295C19.3429 18.0428 18.9845 18.5765 18.5305 19.0305C18.0765 19.4845 17.5468 19.8429 16.9415 20.1057C16.3361 20.3686 15.691 20.5 15.006 20.5H4.99403C4.30904 20.5 3.66388 20.3686 3.05854 20.1057C2.45321 19.8429 1.92354 19.4845 1.46953 19.0305C1.01553 18.5765 0.657109 18.0428 0.394265 17.4295C0.131422 16.8162 0 16.1671 0 15.4821V5.49403C0 4.80904 0.131422 4.16388 0.394265 3.55854C0.657109 2.95321 1.01553 2.42354 1.46953 1.96953C1.92354 1.51553 2.45321 1.15711 3.05854 0.894265C3.66388 0.631422 4.30904 0.5 4.99403 0.5H15.006ZM6.88172 8.00299H4.37276V16.1272H6.88172V8.00299ZM5.63919 7.35783C5.97372 7.35783 6.26444 7.23835 6.51135 6.9994C6.75826 6.76045 6.88172 6.46575 6.88172 6.11529C6.88172 5.76483 6.75826 5.47013 6.51135 5.23118C6.26444 4.99223 5.97372 4.87276 5.63919 4.87276C5.28873 4.87276 4.99004 4.99223 4.74313 5.23118C4.49622 5.47013 4.37276 5.76483 4.37276 6.11529C4.37276 6.46575 4.49622 6.76045 4.74313 6.9994C4.99004 7.23835 5.28873 7.35783 5.63919 7.35783ZM15.6272 11.42C15.6272 10.8465 15.4679 10.2849 15.1493 9.73536C14.8307 9.18578 14.4166 8.76762 13.9068 8.48088C13.4448 8.22601 12.9072 8.0906 12.2939 8.07467C11.6806 8.05874 11.127 8.16229 10.6332 8.3853V8.00299H8.12425V16.1272H10.6332V11.1571L11.6607 10.6553C11.7881 10.5916 11.9634 10.5597 12.1864 10.5597C12.4094 10.5597 12.5767 10.5996 12.6882 10.6792C12.7838 10.727 12.8793 10.8305 12.9749 10.9898C13.0705 11.1491 13.1183 11.2925 13.1183 11.42V16.1272H15.6272V11.42Z" fill="black"/>
</svg>
